# xmcd CD database file
#
# Track frame offsets:
#	187
#	19730
#	41672
#	61565
#	85200
#	107890
#	127250
#	148015
#	167112
#	191657
#	213045
#
# Disc length: 3224 seconds
#
# Revision: 2
# Processed by: cddbd v1.5.2PL0 Copyright (c) Steve Scherf et al.
# Submitted via: CDex 1.51
#
DISCID=980c960b
DTITLE=Little Feat - Shake Me Up
DYEAR=1900
DGENRE=Rock
TTITLE0=Spider's Blues (Might Need It Sometime)
TTITLE1=Shake Me Up
TTITLE2=Things Happen
TTITLE3=Mojo Maiku
TTITLE4=Loved And Lied To
TTITLE5=Don't Try So Hard
TTITLE6=Boom Box Car
TTITLE7=Fast and Furious
TTITLE8=Livin' On Dreams
TTITLE9=Clownin'
TTITLE10=Down In Flames
EXTD=
EXTT0=
EXTT1=
EXTT2=
EXTT3=
EXTT4=
EXTT5=
EXTT6=
EXTT7=
EXTT8=
EXTT9=
EXTT10=
PLAYORDER=
